<?xml version="1.0" encoding="utf-8"?>
<!-- Generator: Adobe Illustrator 18.0.0, SVG Export Plug-In . SVG Version: 6.00 Build 0)  -->
<!DOCTYPE svg PUBLIC "-//W3C//DTD SVG 1.1//EN" "http://www.w3.org/Graphics/SVG/1.1/DTD/svg11.dtd">
<svg version="1.1" id="图层_1" xmlns="http://www.w3.org/2000/svg" xmlns:xlink="http://www.w3.org/1999/xlink" x="0px" y="0px"
	 viewBox="0 0 1482.1 926.3" enable-background="new 0 0 1482.1 926.3" xml:space="preserve">
<g>
	
		<image overflow="visible" width="6176" height="3852" id="XMLID_21_" xlink:href="3DC14243282F48BB.png"  transform="matrix(0.24 0 0 0.24 3.784902e-05 0)">
	</image>
	<g opacity="0.4">
		<g>
			<g>
				<line fill="none" stroke="#B2B2B2" stroke-width="1.0277" stroke-miterlimit="10" x1="0" y1="58.6" x2="1.5" y2="58.6"/>
				
					<line fill="none" stroke="#B2B2B2" stroke-width="1.0277" stroke-miterlimit="10" stroke-dasharray="3.0876,3.0876" x1="4.6" y1="58.6" x2="1479" y2="58.6"/>
				
					<line fill="none" stroke="#B2B2B2" stroke-width="1.0277" stroke-miterlimit="10" x1="1480.5" y1="58.6" x2="1482.1" y2="58.6"/>
			</g>
		</g>
		<g>
			<g>
				<line fill="none" stroke="#B2B2B2" stroke-width="1.0277" stroke-miterlimit="10" x1="0" y1="116.5" x2="1.5" y2="116.5"/>
				
					<line fill="none" stroke="#B2B2B2" stroke-width="1.0277" stroke-miterlimit="10" stroke-dasharray="3.0876,3.0876" x1="4.6" y1="116.5" x2="1479" y2="116.5"/>
				
					<line fill="none" stroke="#B2B2B2" stroke-width="1.0277" stroke-miterlimit="10" x1="1480.5" y1="116.5" x2="1482.1" y2="116.5"/>
			</g>
		</g>
		<g>
			<g>
				<line fill="none" stroke="#B2B2B2" stroke-width="1.0277" stroke-miterlimit="10" x1="0" y1="174.3" x2="1.5" y2="174.3"/>
				
					<line fill="none" stroke="#B2B2B2" stroke-width="1.0277" stroke-miterlimit="10" stroke-dasharray="3.0876,3.0876" x1="4.6" y1="174.3" x2="1479" y2="174.3"/>
				
					<line fill="none" stroke="#B2B2B2" stroke-width="1.0277" stroke-miterlimit="10" x1="1480.5" y1="174.3" x2="1482.1" y2="174.3"/>
			</g>
		</g>
		<g>
			<g>
				<line fill="none" stroke="#B2B2B2" stroke-width="1.0277" stroke-miterlimit="10" x1="0" y1="232.2" x2="1.5" y2="232.2"/>
				
					<line fill="none" stroke="#B2B2B2" stroke-width="1.0277" stroke-miterlimit="10" stroke-dasharray="3.0876,3.0876" x1="4.6" y1="232.2" x2="1479" y2="232.2"/>
				
					<line fill="none" stroke="#B2B2B2" stroke-width="1.0277" stroke-miterlimit="10" x1="1480.5" y1="232.2" x2="1482.1" y2="232.2"/>
			</g>
		</g>
		<g>
			<g>
				<line fill="none" stroke="#B2B2B2" stroke-width="1.0277" stroke-miterlimit="10" x1="0" y1="290.1" x2="1.5" y2="290.1"/>
				
					<line fill="none" stroke="#B2B2B2" stroke-width="1.0277" stroke-miterlimit="10" stroke-dasharray="3.0876,3.0876" x1="4.6" y1="290.1" x2="1479" y2="290.1"/>
				
					<line fill="none" stroke="#B2B2B2" stroke-width="1.0277" stroke-miterlimit="10" x1="1480.5" y1="290.1" x2="1482.1" y2="290.1"/>
			</g>
		</g>
		<g>
			<g>
				<line fill="none" stroke="#B2B2B2" stroke-width="1.0277" stroke-miterlimit="10" x1="0" y1="348" x2="1.5" y2="348"/>
				
					<line fill="none" stroke="#B2B2B2" stroke-width="1.0277" stroke-miterlimit="10" stroke-dasharray="3.0876,3.0876" x1="4.6" y1="348" x2="1479" y2="348"/>
				<line fill="none" stroke="#B2B2B2" stroke-width="1.0277" stroke-miterlimit="10" x1="1480.5" y1="348" x2="1482.1" y2="348"/>
			</g>
		</g>
		<g>
			<g>
				<line fill="none" stroke="#B2B2B2" stroke-width="1.0277" stroke-miterlimit="10" x1="0" y1="405.9" x2="1.5" y2="405.9"/>
				
					<line fill="none" stroke="#B2B2B2" stroke-width="1.0277" stroke-miterlimit="10" stroke-dasharray="3.0876,3.0876" x1="4.6" y1="405.9" x2="1479" y2="405.9"/>
				
					<line fill="none" stroke="#B2B2B2" stroke-width="1.0277" stroke-miterlimit="10" x1="1480.5" y1="405.9" x2="1482.1" y2="405.9"/>
			</g>
		</g>
		<g>
			<g>
				<line fill="none" stroke="#B2B2B2" stroke-width="1.0277" stroke-miterlimit="10" x1="0" y1="463.8" x2="1.5" y2="463.8"/>
				
					<line fill="none" stroke="#B2B2B2" stroke-width="1.0277" stroke-miterlimit="10" stroke-dasharray="3.0876,3.0876" x1="4.6" y1="463.8" x2="1479" y2="463.8"/>
				
					<line fill="none" stroke="#B2B2B2" stroke-width="1.0277" stroke-miterlimit="10" x1="1480.5" y1="463.8" x2="1482.1" y2="463.8"/>
			</g>
		</g>
		<g>
			<g>
				<line fill="none" stroke="#B2B2B2" stroke-width="1.0277" stroke-miterlimit="10" x1="0" y1="521.7" x2="1.5" y2="521.7"/>
				
					<line fill="none" stroke="#B2B2B2" stroke-width="1.0277" stroke-miterlimit="10" stroke-dasharray="3.0876,3.0876" x1="4.6" y1="521.7" x2="1479" y2="521.7"/>
				
					<line fill="none" stroke="#B2B2B2" stroke-width="1.0277" stroke-miterlimit="10" x1="1480.5" y1="521.7" x2="1482.1" y2="521.7"/>
			</g>
		</g>
		<line fill="#FFFFFF" x1="0" y1="579.6" x2="1482.1" y2="579.6"/>
		<line fill="#FFFFFF" x1="0" y1="637.5" x2="1482.1" y2="637.5"/>
		<g>
			<g>
				<line fill="none" stroke="#B2B2B2" stroke-width="1.0277" stroke-miterlimit="10" x1="0" y1="695.4" x2="1.5" y2="695.4"/>
				
					<line fill="none" stroke="#B2B2B2" stroke-width="1.0277" stroke-miterlimit="10" stroke-dasharray="3.0876,3.0876" x1="4.6" y1="695.4" x2="1479" y2="695.4"/>
				
					<line fill="none" stroke="#B2B2B2" stroke-width="1.0277" stroke-miterlimit="10" x1="1480.5" y1="695.4" x2="1482.1" y2="695.4"/>
			</g>
		</g>
		<g>
			<g>
				<line fill="none" stroke="#B2B2B2" stroke-width="1.0277" stroke-miterlimit="10" x1="0" y1="753.2" x2="1.5" y2="753.2"/>
				
					<line fill="none" stroke="#B2B2B2" stroke-width="1.0277" stroke-miterlimit="10" stroke-dasharray="3.0876,3.0876" x1="4.6" y1="753.2" x2="1479" y2="753.2"/>
				
					<line fill="none" stroke="#B2B2B2" stroke-width="1.0277" stroke-miterlimit="10" x1="1480.5" y1="753.2" x2="1482.1" y2="753.2"/>
			</g>
		</g>
		<g>
			<g>
				<line fill="none" stroke="#B2B2B2" stroke-width="1.0277" stroke-miterlimit="10" x1="0" y1="811.1" x2="1.5" y2="811.1"/>
				
					<line fill="none" stroke="#B2B2B2" stroke-width="1.0277" stroke-miterlimit="10" stroke-dasharray="3.0876,3.0876" x1="4.6" y1="811.1" x2="1479" y2="811.1"/>
				
					<line fill="none" stroke="#B2B2B2" stroke-width="1.0277" stroke-miterlimit="10" x1="1480.5" y1="811.1" x2="1482.1" y2="811.1"/>
			</g>
		</g>
		<g>
			<g>
				<line fill="none" stroke="#B2B2B2" stroke-width="1.0277" stroke-miterlimit="10" x1="0" y1="869.8" x2="1.5" y2="869.8"/>
				
					<line fill="none" stroke="#B2B2B2" stroke-width="1.0277" stroke-miterlimit="10" stroke-dasharray="3.0876,3.0876" x1="4.6" y1="869.8" x2="1479" y2="869.8"/>
				
					<line fill="none" stroke="#B2B2B2" stroke-width="1.0277" stroke-miterlimit="10" x1="1480.5" y1="869.8" x2="1482.1" y2="869.8"/>
			</g>
		</g>
		
			<line fill="none" stroke="#B2B2B2" stroke-width="1.027" stroke-miterlimit="10" stroke-dasharray="3.081" x1="62.6" y1="0" x2="62.6" y2="926.3"/>
		
			<line fill="none" stroke="#B2B2B2" stroke-width="1.027" stroke-miterlimit="10" stroke-dasharray="3.081" x1="124.1" y1="0" x2="124.1" y2="926.3"/>
		
			<line fill="none" stroke="#B2B2B2" stroke-width="1.027" stroke-miterlimit="10" stroke-dasharray="3.081" x1="185.7" y1="0" x2="185.7" y2="926.3"/>
		
			<line fill="none" stroke="#B2B2B2" stroke-width="1.027" stroke-miterlimit="10" stroke-dasharray="3.081" x1="247.2" y1="0" x2="247.2" y2="926.3"/>
		
			<line fill="none" stroke="#B2B2B2" stroke-width="1.027" stroke-miterlimit="10" stroke-dasharray="3.081" x1="308.8" y1="0" x2="308.8" y2="926.3"/>
		
			<line fill="none" stroke="#B2B2B2" stroke-width="1.027" stroke-miterlimit="10" stroke-dasharray="3.081" x1="370.4" y1="0" x2="370.4" y2="926.3"/>
		
			<line fill="none" stroke="#B2B2B2" stroke-width="1.027" stroke-miterlimit="10" stroke-dasharray="3.081" x1="431.9" y1="0" x2="431.9" y2="926.3"/>
		
			<line fill="none" stroke="#B2B2B2" stroke-width="1.027" stroke-miterlimit="10" stroke-dasharray="3.081" x1="493.5" y1="0" x2="493.5" y2="926.3"/>
		
			<line fill="none" stroke="#B2B2B2" stroke-width="1.027" stroke-miterlimit="10" stroke-dasharray="3.081" x1="555" y1="0" x2="555" y2="926.3"/>
		
			<line fill="none" stroke="#B2B2B2" stroke-width="1.027" stroke-miterlimit="10" stroke-dasharray="3.081" x1="616.6" y1="0" x2="616.6" y2="926.3"/>
		
			<line fill="none" stroke="#B2B2B2" stroke-width="1.027" stroke-miterlimit="10" stroke-dasharray="3.081" x1="678.1" y1="0" x2="678.1" y2="926.3"/>
		
			<line fill="none" stroke="#B2B2B2" stroke-width="1.027" stroke-miterlimit="10" stroke-dasharray="3.081" x1="739.7" y1="0" x2="739.7" y2="926.3"/>
		
			<line fill="none" stroke="#B2B2B2" stroke-width="1.027" stroke-miterlimit="10" stroke-dasharray="3.081" x1="801.2" y1="0" x2="801.2" y2="926.3"/>
		
			<line fill="none" stroke="#B2B2B2" stroke-width="1.027" stroke-miterlimit="10" stroke-dasharray="3.081" x1="862.8" y1="0" x2="862.8" y2="926.3"/>
		
			<line fill="none" stroke="#B2B2B2" stroke-width="1.027" stroke-miterlimit="10" stroke-dasharray="3.081" x1="924.4" y1="0" x2="924.4" y2="926.3"/>
		
			<line fill="none" stroke="#B2B2B2" stroke-width="1.027" stroke-miterlimit="10" stroke-dasharray="3.081" x1="985.9" y1="0" x2="985.9" y2="926.3"/>
		
			<line fill="none" stroke="#B2B2B2" stroke-width="1.027" stroke-miterlimit="10" stroke-dasharray="3.081" x1="1047.5" y1="0" x2="1047.5" y2="926.3"/>
		
			<line fill="none" stroke="#B2B2B2" stroke-width="1.027" stroke-miterlimit="10" stroke-dasharray="3.081" x1="1109" y1="0" x2="1109" y2="926.3"/>
		
			<line fill="none" stroke="#B2B2B2" stroke-width="1.027" stroke-miterlimit="10" stroke-dasharray="3.081" x1="1170.6" y1="0" x2="1170.6" y2="926.3"/>
		
			<line fill="none" stroke="#B2B2B2" stroke-width="1.027" stroke-miterlimit="10" stroke-dasharray="3.081" x1="1232.1" y1="0" x2="1232.1" y2="926.3"/>
		
			<line fill="none" stroke="#B2B2B2" stroke-width="1.027" stroke-miterlimit="10" stroke-dasharray="3.081" x1="1293.7" y1="0" x2="1293.7" y2="926.3"/>
		
			<line fill="none" stroke="#B2B2B2" stroke-width="1.027" stroke-miterlimit="10" stroke-dasharray="3.081" x1="1355.2" y1="0" x2="1355.2" y2="926.3"/>
		
			<line fill="none" stroke="#B2B2B2" stroke-width="1.027" stroke-miterlimit="10" stroke-dasharray="3.081" x1="1416.8" y1="0" x2="1416.8" y2="926.3"/>
	</g>
	<g>
		<g>
			<g>
				<path fill="#00FFFF" d="M1461,612.3l5.7,3.8V633l1.6,1.1v-26.3l3.6,2.4v-7.8l-3.6-2.4v-13.2l-1.6-1.1v13.2l-5.7-3.8v-18.9
					l-1.5-1.1v117.1l1.5,1.1V612.3z M1461,602.9l5.7,3.8v4.1l-5.7-3.8V602.9z"/>
				<polygon fill="#00FFFF" points="1471.9,572.5 1459.4,565.2 1459.4,573 1471.9,580.3 				"/>
				<polygon fill="#00FFFF" points="1465.5,638.1 1465.5,619 1463.8,617.9 1463.8,644.8 1471.9,650.8 1471.9,643 				"/>
				<polygon fill="#00FFFF" points="1459.4,697.8 1459.4,700.7 1459.4,702 1459.4,704.9 1459.4,707 1471.9,714.1 1471.9,704.3 
					1459.4,697.2 				"/>
				<polygon fill="#00FFFF" points="1461,694.7 1459.4,693.6 1459.4,696.5 1461,697.6 				"/>
				<polygon fill="#00FFFF" points="1471.9,702.3 1471.9,652.2 1464.3,647.3 1464.3,698 				"/>
			</g>
			<g>
				<path fill="#00FFFF" d="M1461,459.6l-1.5,1.1v117.1l1.5-1.1v-18.9l5.7-3.8v13.2l1.6-1.1V553l3.6-2.4v-7.8l-3.6,2.4v-26.3
					l-1.6,1.1v16.9l-5.7,3.8V459.6z M1461,546l5.7-3.8v4.1l-5.7,3.8V546z"/>
				<polygon fill="#00FFFF" points="1471.9,580.5 1459.4,587.8 1459.4,580 1471.9,572.7 				"/>
				<polygon fill="#00FFFF" points="1465.5,514.9 1465.5,534 1463.8,535.1 1463.8,508.2 1471.9,502.2 1471.9,510 				"/>
				<polygon fill="#00FFFF" points="1459.4,455.2 1459.4,452.3 1459.4,451 1459.4,448.1 1459.4,446 1471.9,438.9 1471.9,448.7 
					1459.4,455.8 				"/>
				<polygon fill="#00FFFF" points="1461,458.3 1459.4,459.4 1459.4,456.5 1461,455.4 				"/>
				<polygon fill="#00FFFF" points="1471.9,450.7 1471.9,500.8 1464.3,505.7 1464.3,455 				"/>
			</g>
		</g>
		<g>
			<g>
				<polygon fill="#00FFFF" points="34.9,502.7 22.4,495.3 22.4,503.2 34.9,510.5 				"/>
				<path fill="#00FFFF" d="M23.9,543.1l5.7,3.8v16.9l1.6,1.1v-26.3l3.6,2.4v-7.8l-3.6-2.4v-13.2l-1.6-1.1v13.2l-5.7-3.8v-18.9
					l-1.5-1.1v117.1l1.5,1.1V543.1z M23.9,533.8l5.7,3.8v4.1l-5.7-3.8V533.8z"/>
				<polygon fill="#00FFFF" points="34.9,491.2 22.4,483.9 22.4,491.7 34.9,499 				"/>
				<polygon fill="#00FFFF" points="28.4,568.9 28.4,549.8 26.8,548.8 26.8,575.6 34.9,581.6 34.9,573.8 				"/>
				<polygon fill="#00FFFF" points="22.4,628.6 22.4,631.5 22.4,632.8 22.4,635.7 22.4,637.8 34.9,644.9 34.9,635.1 22.4,628 				
					"/>
				<polygon fill="#00FFFF" points="23.9,625.5 22.4,624.4 22.4,627.3 23.9,628.4 				"/>
				<polygon fill="#00FFFF" points="34.9,633.1 34.9,583 27.2,578.1 27.2,628.8 				"/>
			</g>
			<g>
				<polygon fill="#00FFFF" points="34.9,785.2 22.4,792.6 22.4,784.8 34.9,777.4 				"/>
				<path fill="#00FFFF" d="M23.9,663.8l-1.5,1.1v117.1l1.5-1.1V762l5.7-3.8v13.2l1.6-1.1v-13.2l3.6-2.4v-7.8l-3.6,2.4V723l-1.6,1.1
					V741l-5.7,3.8V663.8z M23.9,750.1l5.7-3.8v4.1l-5.7,3.8V750.1z"/>
				<polygon fill="#00FFFF" points="34.9,796.7 22.4,804.1 22.4,796.3 34.9,788.9 				"/>
				<polygon fill="#00FFFF" points="28.4,719 28.4,738.1 26.8,739.2 26.8,712.3 34.9,706.4 34.9,714.1 				"/>
				<polygon fill="#00FFFF" points="22.4,659.3 22.4,656.4 22.4,655.1 22.4,652.2 22.4,650.1 34.9,643 34.9,652.8 22.4,659.9 				
					"/>
				<polygon fill="#00FFFF" points="23.9,662.5 22.4,663.5 22.4,660.6 23.9,659.5 				"/>
				<polygon fill="#00FFFF" points="34.9,654.8 34.9,704.9 27.2,709.8 27.2,659.1 				"/>
			</g>
		</g>
		<path fill="none" stroke="#00FFFF" stroke-width="1.1117" stroke-miterlimit="10" d="M510.8,18.7c-28.7,0-480.5,0-480.5,0
			c-4.4,0-8,3.6-8,8v446.9l8.3,3.8c5.7,2.9,8,5.9,8,10.3v314c0,4.4-3.6,6.4-8,9c-1.5,0.8-8.8,4.8-8.8,4.8l0.4,77.3c0,4.4,3.6,8,8,8
			c0,0,947.4,0,950.7,0s9.1-13.8,15.9-13.8h148c6.7,0,11.9,13.8,16.2,13.8s303.2,0,303.2,0c4.4,0,8-3.6,8-8V726.4l-9-4.1
			c-2.8-0.9-8-5.9-8-10.3V440.6c0-4.4,4.8-7.2,8-9l9-5.4V26.7c0-4.4-3.6-8-8-8c0,0-247.8,0-251.5,0c-4.7,0-10.4,15-13.7,15h-110.5
			c-3.3,0-7-15-14.1-15c-5.2,0-132.6,0-132.6,0H510.8z"/>
	</g>
</g>
</svg>
