<?xml version="1.0" encoding="utf-8"?>
<!-- Generator: Adobe Illustrator 18.0.0, SVG Export Plug-In . SVG Version: 6.00 Build 0)  -->
<!DOCTYPE svg PUBLIC "-//W3C//DTD SVG 1.1//EN" "http://www.w3.org/Graphics/SVG/1.1/DTD/svg11.dtd">
<svg version="1.1" id="图层_1" xmlns="http://www.w3.org/2000/svg" xmlns:xlink="http://www.w3.org/1999/xlink" x="0px" y="0px"
	 viewBox="0 0 536.7 252.1" enable-background="new 0 0 536.7 252.1" xml:space="preserve">
<g>
	<g>
		<g>
			<polygon opacity="0.1" fill="#5FC9DC" points="385.6,14.1 137.3,14.1 12.3,14.1 8.3,18 8.3,244.3 521.8,244.3 521.8,14.1 			"/>
			<path opacity="0.7" fill="#00FFFF" d="M533,203.7V6.3L526.3,0H503h-4.7h-4.4l-3.1,3.6h-8.5l-5,6.2H269.1v1.7h254.8V222l2.5,2.3
				V237l-2.5,2.3v6.6H6.2V16.7l5.2-5.1h257.6V9.8H63l-3-1.9H48.6l-7.5-6.6H6.8L2,6.1v4.2l2.1,2v191.1L0,207.2v12.6l4.1,3.9V248
				h117.5l3.9,4.1h138.8l3.9-4.1H530l3-3v-0.6l3.8-3.5v-33.6L533,203.7z M515.2,0.6l2.9,2.9h-2.8l-2.9-2.9H515.2z M512,0.6l2.9,2.9
				h-2.8l-2.9-2.9H512z M505.7,3.5l-0.9-0.9l-1.4-2h2.2l2.9,2.9H505.7z M508.9,3.5L506,0.6h2.8l2.9,2.9H508.9z M511.9,9.7l0.9-0.9
				h10.7l0.9,1L511.9,9.7z M536,227.3l-3.4,3.4v-3.3l3.4-3.4V227.3z M536,223.5l-3.4,3.4v-3.3l3.4-3.4V223.5z M536,219.7l-3.4,3.4
				v-3.3l3.4-3.4V219.7z M536,215.9l-3.4,3.4V216l3.4-3.4V215.9z M536,212.1l-3.4,3.4v-3.3l3.4-3.4V212.1z"/>
		</g>
	</g>
	<g>
		<g>
			<g>
				<path id="XMLID_4_" opacity="0.1" fill="#5FC9DC" d="M130.3,14.2"/>
				<g>
					<path id="XMLID_3_" fill="#A4E4ED" d="M134.6,13.8"/>
					<line id="XMLID_2_" fill="#05AAC8" x1="130.3" y1="14.2" x2="130.3" y2="14.1"/>
					<path id="XMLID_1_" fill="#05AAC8" d="M130.4,14.1"/>
				</g>
			</g>
		</g>
	</g>
</g>
</svg>
